<svg width="10" height="10" viewBox="0 0 10 10" fill="none" xmlns="http://www.w3.org/2000/svg">
<g clip-path="url(#clip0_174_21405)">
<path fill-rule="evenodd" clip-rule="evenodd" d="M6.315 1.06227H5C4.75125 1.06227 4.51281 1.16101 4.33719 1.33695L0.587188 5.08695C0.220937 5.45289 0.220937 6.04664 0.587188 6.41258L3.08719 8.91258C3.45313 9.27883 4.04688 9.27883 4.41281 8.91258L8.16281 5.16258C8.33875 4.98695 8.4375 4.74852 8.4375 4.49977V3.18477C8.71094 3.10758 8.96907 2.96133 9.18407 2.74633C9.855 2.0757 9.855 0.986328 9.18407 0.315703C8.51344 -0.355234 7.42406 -0.355234 6.75344 0.315703C6.53844 0.530703 6.39219 0.788828 6.315 1.06227ZM6.88625 1.68727C6.91875 1.9132 7.02187 2.1307 7.19531 2.30445C7.31719 2.42633 7.31719 2.62445 7.19531 2.74633C7.07344 2.8682 6.87531 2.8682 6.75344 2.74633C6.45781 2.4507 6.2925 2.07383 6.2575 1.68727H5C4.91719 1.68727 4.8375 1.72008 4.77906 1.77883L1.02906 5.52883C0.906875 5.6507 0.906875 5.84883 1.02906 5.9707L3.52906 8.4707C3.65094 8.59289 3.84906 8.59289 3.97094 8.4707L7.72094 4.7207C7.77969 4.66227 7.8125 4.58258 7.8125 4.49977V1.99977C7.8125 1.82727 7.6725 1.68727 7.5 1.68727H6.88625ZM8.4375 2.51945C8.54781 2.46727 8.65094 2.3957 8.74219 2.30445C9.16907 1.87758 9.16907 1.18445 8.74219 0.757579C8.31532 0.330704 7.62219 0.330704 7.19531 0.757579C7.10437 0.848829 7.0325 0.951953 6.98032 1.06227H7.5C8.01781 1.06227 8.4375 1.48195 8.4375 1.99977V2.51945Z" fill="white"/>
</g>
<defs>
<clipPath id="clip0_174_21405">
<rect width="10" height="10" fill="white"/>
</clipPath>
</defs>
</svg>
