<svg width="8" height="10" viewBox="0 0 8 10" fill="none" xmlns="http://www.w3.org/2000/svg">
<path d="M5.55798 6.02063C5.71632 6.17674 5.87353 6.3334 6.03297 6.48729C6.05506 6.50522 6.08234 6.51555 6.11076 6.51674C6.17298 6.52119 6.23577 6.51674 6.29854 6.51674C6.46921 6.50192 6.63967 6.54753 6.78011 6.64563C6.92056 6.74373 7.02205 6.88807 7.06688 7.05341C7.1041 7.16888 7.12704 7.28847 7.1352 7.40952C7.13868 7.43671 7.13633 7.46435 7.12828 7.49056C7.12024 7.51677 7.10668 7.54095 7.08854 7.56151C7.0704 7.58207 7.04807 7.59851 7.02307 7.60976C6.99806 7.62101 6.97097 7.6268 6.94355 7.62673C6.88874 7.6284 6.83544 7.60852 6.79513 7.57133C6.75483 7.53414 6.73073 7.48262 6.72799 7.42784C6.71556 7.31794 6.68863 7.21015 6.64797 7.10729C6.6212 7.03503 6.56748 6.97596 6.49806 6.9425C6.42865 6.90903 6.34896 6.90378 6.27576 6.92785C6.37073 7.30976 6.3643 7.70985 6.25711 8.08852C6.14992 8.46718 5.94571 8.81128 5.66466 9.08675C5.41764 9.33018 5.12312 9.52009 4.79945 9.64466C4.47579 9.76923 4.12991 9.82577 3.78342 9.81076C3.43694 9.79575 3.09728 9.70951 2.7856 9.55741C2.47392 9.40532 2.1969 9.19063 1.97186 8.92675C1.73996 8.65493 1.57675 8.33139 1.49593 7.98335C1.4151 7.63531 1.41903 7.27294 1.50742 6.92675C1.45176 6.91072 1.39254 6.91214 1.33771 6.93081C1.28288 6.94949 1.23506 6.98451 1.20075 7.03118C1.11749 7.13848 1.07216 7.27038 1.07187 7.40619C1.07507 7.44077 1.06928 7.47557 1.05508 7.50726C1.04088 7.53894 1.01876 7.56643 0.990826 7.58704C0.962888 7.60766 0.930075 7.62073 0.895611 7.62495C0.861147 7.62918 0.826183 7.62444 0.794089 7.61119C0.75896 7.60079 0.728004 7.57956 0.705656 7.55052C0.683309 7.52149 0.670713 7.48613 0.669645 7.44951C0.654565 7.26526 0.696955 7.08087 0.79097 6.92169C0.884984 6.76251 1.02601 6.63638 1.19465 6.56064C1.33127 6.52617 1.47226 6.51231 1.61298 6.51952C1.64788 6.52004 1.68244 6.51266 1.71409 6.49794C1.74574 6.48322 1.77365 6.46154 1.79574 6.43451C1.92963 6.29229 2.07911 6.16453 2.22411 6.02897C2.17578 6.01119 2.11297 5.98951 2.05019 5.96507C1.813 5.8834 1.59544 5.75323 1.41132 5.58285C1.32999 5.50555 1.26556 5.41222 1.22215 5.30875C1.17873 5.20529 1.15726 5.09393 1.15908 4.98174C1.15908 4.59674 1.1713 4.21118 1.1563 3.82674C1.14484 3.64662 1.18603 3.46707 1.27481 3.30994C1.36358 3.15281 1.49613 3.02488 1.65631 2.94174C2.01409 2.73853 2.40783 2.60646 2.81578 2.55285C3.36521 2.46352 3.92379 2.44485 4.47797 2.49729C5.04464 2.52077 5.59881 2.67114 6.09964 2.9373C6.21794 2.99605 6.32294 3.0784 6.40817 3.17931C6.4934 3.28021 6.55707 3.39751 6.59521 3.52397C6.61026 3.57829 6.61847 3.63427 6.61966 3.69063C6.61966 4.13507 6.6241 4.57951 6.61966 5.02396C6.61607 5.14628 6.58475 5.2662 6.52807 5.37466C6.47139 5.48311 6.39082 5.57729 6.29244 5.65008C6.0985 5.8035 5.8785 5.92074 5.64299 5.99618L5.55798 6.02063ZM3.89908 6.24285C3.60964 6.24285 3.31966 6.24285 3.03021 6.24285C2.81826 6.24158 2.61012 6.2993 2.42909 6.40952C2.1997 6.54992 2.02174 6.76059 1.92165 7.01021C1.82156 7.25984 1.80468 7.53509 1.87353 7.79507C1.92531 8.05742 2.02879 8.30685 2.17793 8.52882C2.32706 8.75078 2.51888 8.94085 2.7422 9.08795C2.96551 9.23505 3.21588 9.33624 3.47869 9.38563C3.7415 9.43502 4.01151 9.43162 4.27299 9.37563C4.70211 9.31299 5.09796 9.1087 5.39763 8.79524C5.69731 8.48177 5.88359 8.07714 5.92687 7.64564C5.956 7.47216 5.94667 7.2944 5.89958 7.12492C5.85248 6.95544 5.76877 6.79836 5.65432 6.66479C5.53987 6.53121 5.3975 6.4244 5.23724 6.35188C5.07699 6.27936 4.90274 6.24288 4.72686 6.24507C4.45186 6.24396 4.17519 6.24507 3.89908 6.24507V6.24285ZM6.21466 4.35786C6.21466 4.16675 6.20632 3.97562 6.21466 3.78562C6.22432 3.69309 6.20629 3.59978 6.16288 3.51749C6.11946 3.43521 6.05259 3.36767 5.97075 3.32342C5.80902 3.22347 5.63573 3.14361 5.45467 3.08563C4.47615 2.80667 3.44137 2.79057 2.45465 3.03896C2.21925 3.08793 1.99565 3.18228 1.79632 3.31674C1.72232 3.36312 1.6619 3.42826 1.62122 3.50554C1.58053 3.58282 1.56103 3.66949 1.56466 3.75675C1.57355 4.15119 1.57466 4.54674 1.56466 4.94119C1.55734 5.02991 1.57551 5.11886 1.61705 5.1976C1.65858 5.27634 1.72174 5.34157 1.7991 5.38562C1.96037 5.48685 2.13379 5.5673 2.31522 5.62507C3.30848 5.90629 4.35912 5.91493 5.35687 5.65008C5.57068 5.58741 5.77592 5.49858 5.96797 5.38562C6.05081 5.34299 6.11882 5.2763 6.16305 5.1943C6.20727 5.1123 6.22566 5.01882 6.21577 4.92618C6.20577 4.74174 6.2152 4.55063 6.2152 4.35952L6.21466 4.35786Z" fill="white" stroke="white" stroke-width="0.25"/>
<path d="M4.08743 2.16059H3.68409C3.68409 2.00447 3.67853 1.85114 3.68409 1.69836C3.69105 1.65786 3.6832 1.61621 3.66198 1.58101C3.64076 1.54582 3.6076 1.51944 3.56853 1.5067C3.42525 1.43689 3.31079 1.3193 3.24487 1.17419C3.17896 1.02908 3.16571 0.865525 3.2074 0.711696C3.24658 0.55903 3.33622 0.424093 3.46175 0.328785C3.58728 0.233477 3.74135 0.183393 3.89893 0.186675C4.05651 0.189957 4.20835 0.246407 4.32981 0.346858C4.45126 0.44731 4.53519 0.585862 4.56798 0.740027C4.60218 0.895607 4.58179 1.05822 4.51027 1.20055C4.43875 1.34289 4.32043 1.45629 4.17518 1.5217C4.14466 1.53054 4.11849 1.55033 4.10167 1.5773C4.08485 1.60427 4.07857 1.63651 4.08407 1.66781C4.09074 1.82781 4.08743 1.98892 4.08743 2.16059ZM3.88964 0.595034C3.85084 0.593767 3.8122 0.600316 3.77598 0.614294C3.73977 0.628272 3.70672 0.649393 3.67883 0.676397C3.65095 0.703402 3.62879 0.735738 3.61366 0.771485C3.59853 0.807232 3.59072 0.845658 3.59074 0.884476C3.59071 0.962766 3.62124 1.03798 3.67582 1.09411C3.73039 1.15024 3.8047 1.18286 3.88296 1.18503C3.96131 1.18518 4.03658 1.15439 4.09235 1.09935C4.14811 1.04432 4.17987 0.969485 4.18075 0.891139C4.18195 0.852397 4.17532 0.813819 4.16121 0.777716C4.14711 0.741612 4.12583 0.708735 4.09869 0.681068C4.07154 0.653402 4.03906 0.631513 4.00324 0.616727C3.96741 0.601941 3.92894 0.594566 3.89018 0.595034H3.88964Z" fill="white" stroke="white" stroke-width="0.25"/>
<path d="M2.91188 3.65348C3.04935 3.65535 3.18318 3.69785 3.29654 3.77562C3.4099 3.85339 3.4977 3.96297 3.54892 4.09055C3.60014 4.21813 3.61247 4.35801 3.58435 4.49258C3.55624 4.62715 3.48892 4.75039 3.39091 4.84679C3.29289 4.94319 3.16857 5.00843 3.03355 5.0343C2.89853 5.06017 2.75885 5.04552 2.63214 4.99219C2.50543 4.93885 2.39734 4.84923 2.32147 4.73459C2.2456 4.61994 2.20535 4.4854 2.20577 4.34793C2.20531 4.25561 2.22334 4.16415 2.25881 4.07892C2.29427 3.99368 2.34642 3.91643 2.41224 3.8517C2.47806 3.78696 2.5562 3.73607 2.64201 3.70202C2.72781 3.66798 2.81959 3.65148 2.91188 3.65348ZM2.90242 4.05404C2.82418 4.055 2.74951 4.087 2.69487 4.143C2.64022 4.199 2.61009 4.27442 2.61105 4.35266C2.612 4.4309 2.64399 4.50555 2.69999 4.56019C2.75599 4.61484 2.83141 4.64501 2.90964 4.64405C2.98788 4.64309 3.06255 4.61109 3.1172 4.55509C3.17184 4.49909 3.20198 4.42367 3.20102 4.34544C3.20006 4.2672 3.16808 4.19255 3.11208 4.1379C3.05608 4.08325 2.98066 4.05309 2.90242 4.05404V4.05404Z" fill="white" stroke="white" stroke-width="0.25"/>
<path d="M4.86965 3.65137C5.05464 3.65203 5.2318 3.72616 5.36214 3.85743C5.49247 3.98871 5.5653 4.16637 5.56464 4.35136C5.56397 4.53635 5.48985 4.71351 5.35858 4.84385C5.2273 4.97418 5.04965 5.04703 4.86467 5.04636C4.77307 5.04604 4.68241 5.02767 4.59791 4.99231C4.51341 4.95696 4.43672 4.9053 4.37218 4.8403C4.24184 4.70903 4.16898 4.53135 4.16964 4.34636C4.17031 4.16137 4.24443 3.98423 4.37571 3.85389C4.50698 3.72355 4.68466 3.65071 4.86965 3.65137V3.65137ZM4.57298 4.34081C4.57173 4.37954 4.57817 4.41812 4.59194 4.45434C4.60571 4.49056 4.62651 4.52368 4.65318 4.55179C4.67984 4.5799 4.71183 4.60246 4.74727 4.61812C4.78272 4.63378 4.82091 4.64224 4.85965 4.64302C4.89839 4.64397 4.93695 4.63729 4.9731 4.62334C5.00926 4.60939 5.04229 4.58845 5.07035 4.56173C5.09842 4.53501 5.12094 4.50303 5.13664 4.4676C5.15235 4.43217 5.16092 4.394 5.16187 4.35526C5.16282 4.31652 5.15612 4.27797 5.14217 4.24182C5.12822 4.20567 5.10728 4.1726 5.08056 4.14454C5.05384 4.11647 5.02186 4.09395 4.98643 4.07824C4.951 4.06254 4.91283 4.05398 4.87409 4.05303C4.83537 4.05178 4.79679 4.05824 4.7606 4.07206C4.72441 4.08587 4.69135 4.10676 4.66332 4.1335C4.63529 4.16024 4.61284 4.19228 4.59733 4.22778C4.58182 4.26328 4.57355 4.30152 4.57298 4.34026V4.34081Z" fill="white" stroke="white" stroke-width="0.25"/>
</svg>
