<svg width="14" height="16" viewBox="0 0 14 16" fill="none" xmlns="http://www.w3.org/2000/svg">
<path d="M13.6667 2.76339L10.9907 6.10352e-05H5.66668C5.13624 6.10352e-05 4.62754 0.210775 4.25246 0.585847C3.87739 0.96092 3.66668 1.46963 3.66668 2.00006V2.66673H2.33334C1.80291 2.66673 1.2942 2.87744 0.91913 3.25251C0.544057 3.62759 0.333344 4.13629 0.333344 4.66673V16.0001H11V12.6667H13.6667V2.76339ZM9.66668 14.6667H1.66668V4.66673C1.66668 4.48992 1.73691 4.32035 1.86194 4.19532C1.98696 4.0703 2.15653 4.00006 2.33334 4.00006H3.66668V12.6667H9.66668V14.6667ZM5.00001 11.3334V2.00006C5.00001 1.82325 5.07025 1.65368 5.19527 1.52866C5.3203 1.40363 5.48987 1.33339 5.66668 1.33339H9.66668V4.00006H12.3333V11.3334H5.00001Z" fill="#F9B619"/>
</svg>
