<svg width="9" height="9" viewBox="0 0 9 9" fill="none" xmlns="http://www.w3.org/2000/svg">
<path d="M8.62054 4.12574C8.52108 4.12574 8.4257 4.16525 8.35537 4.23558C8.28505 4.3059 8.24554 4.40129 8.24554 4.50074C8.24858 5.37272 7.94869 6.21869 7.39711 6.89405C6.84552 7.56942 6.0765 8.03225 5.22148 8.20343C4.36646 8.37461 3.47853 8.24353 2.70946 7.83257C1.94038 7.42162 1.33791 6.75631 1.00502 5.95037C0.672127 5.14443 0.629482 4.24789 0.884374 3.41399C1.13927 2.58009 1.67587 1.86061 2.40247 1.37851C3.12906 0.896416 4.00054 0.681642 4.86795 0.770898C5.73536 0.860155 6.54484 1.2479 7.15803 1.86786C7.1457 1.87123 7.13318 1.87386 7.12053 1.87574H5.99553C5.89607 1.87574 5.80069 1.91525 5.73036 1.98557C5.66003 2.0559 5.62053 2.15128 5.62053 2.25074C5.62053 2.35019 5.66003 2.44558 5.73036 2.5159C5.80069 2.58623 5.89607 2.62574 5.99553 2.62574H7.12053C7.4189 2.62574 7.70505 2.50721 7.91603 2.29623C8.12701 2.08525 8.24554 1.7991 8.24554 1.50074V0.375733C8.24554 0.276277 8.20603 0.180894 8.1357 0.110568C8.06537 0.0402413 7.96999 0.000732422 7.87053 0.000732422C7.77108 0.000732422 7.67569 0.0402413 7.60537 0.110568C7.53504 0.180894 7.49553 0.276277 7.49553 0.375733V1.15011C6.72774 0.463682 5.74762 0.061545 4.71897 0.0108959C3.69031 -0.0397531 2.67543 0.264154 1.84391 0.871835C1.0124 1.47952 0.414616 2.35416 0.150462 3.3496C-0.113693 4.34505 -0.0282195 5.401 0.392599 6.341C0.813418 7.28101 1.54409 8.04812 2.46252 8.51415C3.38095 8.98018 4.43149 9.1169 5.43861 8.90147C6.44573 8.68604 7.3484 8.1315 7.9958 7.33052C8.6432 6.52954 8.99611 5.53064 8.99554 4.50074C8.99554 4.40129 8.95603 4.3059 8.8857 4.23558C8.81538 4.16525 8.71999 4.12574 8.62054 4.12574Z" fill="#967526"/>
<path d="M4.49573 2.25073C4.39627 2.25073 4.30089 2.29024 4.23056 2.36057C4.16024 2.43089 4.12073 2.52628 4.12073 2.62573V4.50074C4.12075 4.60019 4.16027 4.69555 4.2306 4.76586L5.35561 5.89087C5.42634 5.95918 5.52107 5.99697 5.61939 5.99612C5.71772 5.99527 5.81177 5.95583 5.8813 5.8863C5.95083 5.81677 5.99027 5.72272 5.99112 5.62439C5.99198 5.52607 5.95418 5.43134 5.88587 5.36062L4.87073 4.34549V2.62573C4.87073 2.52628 4.83123 2.43089 4.7609 2.36057C4.69057 2.29024 4.59519 2.25073 4.49573 2.25073Z" fill="#967526"/>
</svg>
