<svg xmlns="http://www.w3.org/2000/svg" width="8.93" height="8.939" viewBox="0 0 8.93 8.939">
  <g id="Group_7406" data-name="Group 7406" transform="translate(1066.58 -164.146)">
    <path id="Path_2973" data-name="Path 2973" d="M-910.661,168.52a1.176,1.176,0,0,0,.45.641,1.175,1.175,0,0,0,1.514-.129l1.673-1.674a1.173,1.173,0,0,0,.238-1.33,1.181,1.181,0,0,0-1.14-.684,1.183,1.183,0,0,0-.786.363c-.176.177-.35.356-.529.53a.117.117,0,0,1-.1.027,2.961,2.961,0,0,0-1.426-.147.1.1,0,0,1-.024,0,.169.169,0,0,1,.019-.031c.432-.431.85-.876,1.3-1.289a2.26,2.26,0,0,1,2.348-.518,2.241,2.241,0,0,1,1.584,1.776,2.289,2.289,0,0,1-.659,2.166c-.562.571-1.126,1.14-1.7,1.7a2.247,2.247,0,0,1-1.767.645,2.283,2.283,0,0,1-1.853-1.085.1.1,0,0,1,.014-.147c.23-.223.454-.453.682-.678A2.065,2.065,0,0,1-910.661,168.52Z" transform="translate(-152.165 0)" fill="#000000"/>
    <path id="Path_2974" data-name="Path 2974" d="M-1061.4,302.244a1.169,1.169,0,0,0-.426-.62,1.161,1.161,0,0,0-1.5.082c-.409.388-.8.794-1.2,1.192-.183.183-.37.362-.546.552a1.171,1.171,0,0,0-.2,1.306,1.184,1.184,0,0,0,1.123.669,1.186,1.186,0,0,0,.8-.368c.174-.175.347-.35.524-.522a.119.119,0,0,1,.1-.03,2.963,2.963,0,0,0,1.427.147.1.1,0,0,1,.023,0,.158.158,0,0,1-.019.031c-.43.429-.847.871-1.292,1.283a2.26,2.26,0,0,1-2.337.53,2.243,2.243,0,0,1-1.6-1.781,2.266,2.266,0,0,1,.628-2.132c.572-.591,1.151-1.177,1.747-1.743a2.347,2.347,0,0,1,3.2-.033,4.879,4.879,0,0,1,.418.5.073.073,0,0,1-.009.117c-.245.239-.485.482-.729.722A1.135,1.135,0,0,1-1061.4,302.244Z" transform="translate(0 -133.537)" fill="#000000"/>
  </g>
</svg>
