<svg width="16" height="16" viewBox="0 0 16 16" fill="none" xmlns="http://www.w3.org/2000/svg">
<g clip-path="url(#clip0_366_7867)">
<path d="M14.6666 2.66673H11.3333V1.33339C11.3333 0.979772 11.1928 0.640634 10.9428 0.390585C10.6927 0.140537 10.3536 6.10352e-05 9.99998 6.10352e-05L5.99998 6.10352e-05C5.64636 6.10352e-05 5.30722 0.140537 5.05717 0.390585C4.80712 0.640634 4.66665 0.979772 4.66665 1.33339V2.66673H1.33331V4.00006H2.66665V14.0001C2.66665 14.5305 2.87736 15.0392 3.25243 15.4143C3.62751 15.7893 4.13621 16.0001 4.66665 16.0001H11.3333C11.8637 16.0001 12.3725 15.7893 12.7475 15.4143C13.1226 15.0392 13.3333 14.5305 13.3333 14.0001V4.00006H14.6666V2.66673ZM5.99998 1.33339H9.99998V2.66673H5.99998V1.33339ZM12 14.0001C12 14.1769 11.9297 14.3464 11.8047 14.4715C11.6797 14.5965 11.5101 14.6667 11.3333 14.6667H4.66665C4.48984 14.6667 4.32027 14.5965 4.19524 14.4715C4.07022 14.3464 3.99998 14.1769 3.99998 14.0001V4.00006H12V14.0001Z" fill="#FF2424"/>
<path d="M7.33333 6.66673H6V12.0001H7.33333V6.66673Z" fill="#FF2424"/>
<path d="M9.99996 6.66673H8.66663V12.0001H9.99996V6.66673Z" fill="#FF2424"/>
</g>
<defs>
<clipPath id="clip0_366_7867">
<rect width="16" height="16" fill="white"/>
</clipPath>
</defs>
</svg>
