<svg width="24" height="24" viewBox="0 0 24 24" fill="none" xmlns="http://www.w3.org/2000/svg">
<rect x="0.25" y="0.25" width="23.5" height="23.5" rx="11.75" fill="#F9B619"/>
<path d="M6.83398 8.89062V16H5.37402V8.89062H6.83398ZM11.9072 14.1396C11.9072 14.0127 11.8877 13.8988 11.8486 13.7979C11.8128 13.6937 11.7445 13.5993 11.6436 13.5146C11.5426 13.4268 11.401 13.3405 11.2188 13.2559C11.0365 13.1712 10.8005 13.0833 10.5107 12.9922C10.1885 12.888 9.88249 12.7708 9.59277 12.6406C9.30632 12.5104 9.05241 12.359 8.83105 12.1865C8.61296 12.0107 8.44043 11.8073 8.31348 11.5762C8.18978 11.3451 8.12793 11.0765 8.12793 10.7705C8.12793 10.4743 8.19303 10.2057 8.32324 9.96484C8.45345 9.7207 8.63574 9.51237 8.87012 9.33984C9.10449 9.16406 9.38118 9.02897 9.7002 8.93457C10.0225 8.84017 10.3757 8.79297 10.7598 8.79297C11.2839 8.79297 11.7412 8.88737 12.1318 9.07617C12.5225 9.26497 12.8252 9.52376 13.04 9.85254C13.2581 10.1813 13.3672 10.5573 13.3672 10.9805H11.9121C11.9121 10.7721 11.8682 10.5898 11.7803 10.4336C11.6956 10.2741 11.5654 10.1488 11.3896 10.0576C11.2171 9.96647 10.999 9.9209 10.7354 9.9209C10.4814 9.9209 10.2699 9.95996 10.1006 10.0381C9.93132 10.113 9.80436 10.2155 9.71973 10.3457C9.63509 10.4727 9.59277 10.6159 9.59277 10.7754C9.59277 10.8958 9.62207 11.0049 9.68066 11.1025C9.74251 11.2002 9.83366 11.2913 9.9541 11.376C10.0745 11.4606 10.2227 11.5404 10.3984 11.6152C10.5742 11.6901 10.7777 11.7633 11.0088 11.835C11.3962 11.9521 11.7363 12.084 12.0293 12.2305C12.3255 12.377 12.5729 12.5413 12.7715 12.7236C12.9701 12.9059 13.1198 13.1126 13.2207 13.3438C13.3216 13.5749 13.3721 13.8369 13.3721 14.1299C13.3721 14.4391 13.3118 14.7158 13.1914 14.96C13.071 15.2041 12.8968 15.4108 12.6689 15.5801C12.4411 15.7493 12.1693 15.8779 11.8535 15.9658C11.5378 16.0537 11.1846 16.0977 10.7939 16.0977C10.4424 16.0977 10.0957 16.0521 9.75391 15.9609C9.41211 15.8665 9.10124 15.7249 8.82129 15.5361C8.5446 15.3473 8.32324 15.1064 8.15723 14.8135C7.99121 14.5205 7.9082 14.1738 7.9082 13.7734H9.37793C9.37793 13.9948 9.41211 14.182 9.48047 14.335C9.54883 14.488 9.64486 14.6117 9.76855 14.7061C9.89551 14.8005 10.0452 14.8688 10.2178 14.9111C10.3936 14.9535 10.5856 14.9746 10.7939 14.9746C11.0479 14.9746 11.2562 14.9388 11.4189 14.8672C11.585 14.7956 11.707 14.6963 11.7852 14.5693C11.8665 14.4424 11.9072 14.2992 11.9072 14.1396ZM19.1387 14.8574V16H15.3545V14.8574H19.1387ZM15.833 8.89062V16H14.3682V8.89062H15.833ZM18.6455 11.7861V12.8994H15.3545V11.7861H18.6455ZM19.1338 8.89062V10.0381H15.3545V8.89062H19.1338Z" fill="white"/>
<rect x="0.25" y="0.25" width="23.5" height="23.5" rx="11.75" stroke="#F9B619" stroke-width="0.5"/>
</svg>
