<svg width="17" height="12" viewBox="0 0 17 12" fill="none" xmlns="http://www.w3.org/2000/svg">
<g clip-path="url(#clip0_586_3540)">
<path d="M12.8262 7.06893C12.8269 7.05783 12.8269 7.04668 12.8262 7.03558C12.7468 6.03505 10.7441 5.22192 8.2936 5.22192C5.8431 5.22192 3.84681 6.01599 3.76422 7.02605V7.04193C3.76422 7.05146 3.76422 7.06099 3.76422 7.06893V7.09593V7.59778V9.59249C3.76028 9.66427 3.77102 9.7361 3.79578 9.80359C3.82054 9.87109 3.8588 9.93282 3.90822 9.98503C3.95764 10.0372 4.01719 10.0788 4.08322 10.1072C4.14926 10.1357 4.22039 10.1503 4.29228 10.1503C4.36417 10.1503 4.4353 10.1357 4.50134 10.1072C4.56737 10.0788 4.62692 10.0372 4.67634 9.98503C4.72576 9.93282 4.76402 9.87109 4.78878 9.80359C4.81354 9.7361 4.82427 9.66427 4.82034 9.59249V8.59514H11.7732V9.59249C11.7693 9.66427 11.78 9.7361 11.8048 9.80359C11.8295 9.87109 11.8678 9.93282 11.9172 9.98503C11.9666 10.0372 12.0262 10.0788 12.0922 10.1072C12.1583 10.1357 12.2294 10.1503 12.3013 10.1503C12.3732 10.1503 12.4443 10.1357 12.5103 10.1072C12.5764 10.0788 12.6359 10.0372 12.6853 9.98503C12.7348 9.93282 12.773 9.87109 12.7978 9.80359C12.8225 9.7361 12.8333 9.66427 12.8293 9.59249V7.06893H12.8262Z" fill="#888888"/>
<path d="M6.31479 3.53206C6.31236 3.48537 6.31963 3.43869 6.33614 3.39496C6.35265 3.35122 6.37805 3.31139 6.41073 3.27796C6.44341 3.24453 6.48266 3.21824 6.52601 3.20075C6.56936 3.18325 6.61587 3.17493 6.6626 3.17631C7.20115 3.27058 7.74688 3.31787 8.29362 3.31766C8.8412 3.31315 9.38759 3.26589 9.92782 3.17631C9.97393 3.17522 10.0198 3.18352 10.0626 3.20071C10.1054 3.2179 10.1442 3.24362 10.1768 3.27631C10.2093 3.309 10.2348 3.34796 10.2518 3.39084C10.2688 3.43371 10.2769 3.4796 10.2756 3.5257V4.60723C10.9109 4.72634 11.238 4.78828 11.6637 5.00109V2.69987C11.6637 2.56003 11.6081 2.42592 11.5092 2.32704C11.4103 2.22816 11.2762 2.17261 11.1364 2.17261H5.45402C5.31418 2.17261 5.18007 2.22816 5.08119 2.32704C4.98231 2.42592 4.92676 2.56003 4.92676 2.69987V5.00744C5.35079 4.79463 5.68589 4.7311 6.31479 4.61358V3.53206Z" fill="#888888"/>
<path d="M14.4223 0H2.16822C1.74702 0 1.34307 0.167322 1.04523 0.465156C0.7474 0.76299 0.580078 1.16694 0.580078 1.58814L0.580078 10.4134C0.580078 10.8346 0.7474 11.2386 1.04523 11.5364C1.34307 11.8343 1.74702 12.0016 2.16822 12.0016H14.4223C14.6309 12.0016 14.8374 11.9605 15.0301 11.8807C15.2228 11.8009 15.3978 11.6839 15.5453 11.5364C15.6928 11.389 15.8098 11.2139 15.8896 11.0212C15.9694 10.8285 16.0105 10.622 16.0105 10.4134V1.58814C16.0105 1.37958 15.9694 1.17307 15.8896 0.980386C15.8098 0.787704 15.6928 0.612629 15.5453 0.465156C15.3978 0.317683 15.2228 0.200702 15.0301 0.12089C14.8374 0.0410785 14.6309 0 14.4223 0V0ZM14.8337 10.2276C14.8337 10.3857 14.771 10.5374 14.6593 10.6493C14.5477 10.7613 14.3962 10.8244 14.2381 10.8248H2.35244C2.19407 10.8248 2.04219 10.7619 1.9302 10.6499C1.81822 10.5379 1.7553 10.386 1.7553 10.2276V1.77237C1.7553 1.61399 1.81822 1.46211 1.9302 1.35012C2.04219 1.23814 2.19407 1.17523 2.35244 1.17523H14.2381C14.3165 1.17523 14.3942 1.19067 14.4666 1.22068C14.5391 1.25069 14.6049 1.29467 14.6603 1.35012C14.7158 1.40557 14.7598 1.4714 14.7898 1.54385C14.8198 1.6163 14.8352 1.69395 14.8352 1.77237L14.8337 10.2276Z" fill="#888888"/>
</g>
<defs>
<clipPath id="clip0_586_3540">
<rect width="15.4288" height="12" fill="#888888" transform="translate(0.580078)"/>
</clipPath>
</defs>
</svg>
