<svg width="15" height="12" viewBox="0 0 15 12" fill="none" xmlns="http://www.w3.org/2000/svg">
<path d="M8.4321 1.11576C7.76637 0.929796 7.74405 0.371919 7.74033 0C6.21919 0.418408 6.72685 1.99348 6.72685 1.99348L7.87422 1.96745L8.4321 1.11576Z" fill="#888888"/>
<path d="M5.34567 12C5.18849 11.9919 5.03989 11.9258 4.9286 11.8145C4.81731 11.7032 4.75124 11.5546 4.74316 11.3975C4.74316 10.6071 4.74316 8.73452 4.74316 8.43327C4.75289 8.28129 4.72874 8.12906 4.67246 7.98756C4.61618 7.84606 4.52918 7.71882 4.41773 7.61504C3.24433 6.46024 2.07837 5.29055 0.916121 4.12273C0.795643 4.00534 0.704346 3.86135 0.64955 3.70231C0.594754 3.54327 0.577983 3.37361 0.600581 3.20692C0.62318 3.04023 0.68452 2.88116 0.779683 2.74245C0.874846 2.60374 1.00118 2.48926 1.14857 2.40818C1.35644 2.2941 1.59571 2.25056 1.83044 2.28409C2.06517 2.31763 2.28268 2.42642 2.45029 2.59414C2.87427 3.01441 3.29454 3.43902 3.71109 3.86796C4.2262 4.39795 4.73387 4.93537 5.24897 5.46721C5.56295 5.78793 5.93822 6.04223 6.35246 6.21499C6.7667 6.38775 7.21145 6.47543 7.66027 6.47283C8.10908 6.47023 8.55279 6.37739 8.965 6.19984C9.37721 6.02229 9.7495 5.76366 10.0597 5.43932C10.9709 4.48721 11.8933 3.54997 12.8138 2.60902C12.9488 2.46035 13.1233 2.35322 13.3169 2.30019C13.5106 2.24717 13.7154 2.25044 13.9072 2.30963C14.0861 2.35997 14.2488 2.45608 14.3793 2.58848C14.5097 2.72087 14.6034 2.88498 14.6511 3.06462C14.705 3.25163 14.7059 3.44993 14.6537 3.63742C14.6014 3.82491 14.4982 3.99421 14.3554 4.12645L11.421 7.0739C11.2052 7.28962 10.9914 7.50719 10.7738 7.71918C10.7043 7.78211 10.6485 7.85865 10.6097 7.94407C10.571 8.02948 10.5503 8.12193 10.5488 8.21569C10.5488 8.6434 10.5488 10.5904 10.5377 11.3975C10.5387 11.4769 10.5238 11.5557 10.4938 11.6292C10.4639 11.7028 10.4196 11.7696 10.3634 11.8257C10.3073 11.8819 10.2404 11.9262 10.1669 11.9561C10.0933 11.9861 10.0145 12.001 9.93515 12H5.34567Z" fill="#888888"/>
<path d="M10.0001 3.11856C10.0005 3.58484 9.86259 4.04076 9.60388 4.42869C9.34517 4.81662 8.97726 5.11914 8.54664 5.298C8.11603 5.47686 7.64206 5.52404 7.18463 5.43357C6.72721 5.3431 6.30689 5.11904 5.97679 4.78972C5.64668 4.4604 5.42163 4.0406 5.33008 3.58339C5.23853 3.12619 5.28458 2.6521 5.46243 2.22107C5.64027 1.79003 5.94192 1.4214 6.32923 1.16178C6.71655 0.902154 7.17214 0.76319 7.63843 0.762454C7.94823 0.761965 8.2551 0.822534 8.54149 0.940697C8.82788 1.05886 9.08818 1.2323 9.3075 1.45111C9.52683 1.66992 9.70089 1.92981 9.81973 2.21592C9.93857 2.50203 9.99986 2.80875 10.0001 3.11856V3.11856Z" fill="#888888"/>
</svg>
