<svg xmlns="http://www.w3.org/2000/svg" width="24.199" height="24.2" viewBox="0 0 24.199 24.2">
  <path id="Path_2951" data-name="Path 2951" d="M17.19,1A7.81,7.81,0,1,0,25,8.81,7.82,7.82,0,0,0,17.19,1Zm0,1.143A6.667,6.667,0,1,1,10.524,8.81,6.674,6.674,0,0,1,17.19,2.143Zm0,4.762a1.9,1.9,0,1,0,1.9,1.9,1.9,1.9,0,0,0-1.9-1.9ZM8.879,12.733a.529.529,0,0,0-.393.172L1.172,20.219a.519.519,0,0,0-.172.4v3.81A.561.561,0,0,0,1.571,25h3.81a.561.561,0,0,0,.571-.571V21.19H9.19a.561.561,0,0,0,.571-.571V17.381h2.667a.571.571,0,0,0,0-1.143H9.19a.561.561,0,0,0-.571.571v3.238H5.381a.561.561,0,0,0-.571.571v3.238H2.143v-3.01L9.286,13.7a.552.552,0,0,0,0-.8A.576.576,0,0,0,8.879,12.733Z" transform="translate(-0.9 -0.9)" fill="#000" stroke="#000" stroke-width="0.2"/>
</svg>
