<svg width="10" height="10" viewBox="0 0 10 10" fill="none" xmlns="http://www.w3.org/2000/svg">
<g clip-path="url(#clip0_174_21411)">
<path d="M9.31354 0.186487C8.39822 -0.728826 6.91428 -0.728826 5.99897 0.186467L4.0401 2.14533C3.09332 3.09215 3.18098 4.60074 4.0401 5.4599C4.18397 5.60377 4.34315 5.72108 4.51123 5.81742L4.86875 5.4599C5.10324 5.22537 5.0207 4.95121 5.01648 4.75338C4.96502 4.7169 4.91496 4.67746 4.86875 4.63125C4.42787 4.19041 4.40805 3.43467 4.86875 2.97397C4.93717 2.90555 6.78606 1.05666 6.82758 1.01514C7.28459 0.558127 8.02785 0.558127 8.48486 1.01514C8.94187 1.47215 8.94187 2.21541 8.48486 2.67242L7.19008 3.96721C7.22752 4.17438 7.45223 4.66512 7.33664 5.47465C7.34229 5.4691 7.34904 5.46553 7.35467 5.45992L9.31354 3.50106C10.2288 2.58574 10.2288 1.1018 9.31354 0.186487Z" fill="white"/>
<path d="M6.11169 3.38828C5.96784 3.24441 5.80864 3.12711 5.64059 3.03076L5.28307 3.38828C5.04854 3.62277 5.13108 3.89693 5.1353 4.09477C5.1868 4.13125 5.23686 4.17068 5.28307 4.21689C5.72395 4.65777 5.74378 5.41348 5.28307 5.87418C5.2145 5.94275 3.21247 7.94479 3.17241 7.98484C2.7154 8.44186 1.97213 8.44186 1.51512 7.98484C1.05811 7.52783 1.05811 6.78457 1.51512 6.32756L2.96174 4.88094C2.9243 4.67377 2.69958 4.18303 2.81518 3.3735C2.80954 3.37904 2.80274 3.38266 2.79711 3.38826L0.68647 5.49895C-0.228803 6.41426 -0.228803 7.8982 0.68647 8.81352C1.60178 9.72879 3.08571 9.72879 4.00102 8.81352L6.11169 6.70285C7.0409 5.77363 6.99012 4.2667 6.11169 3.38828Z" fill="white"/>
</g>
<defs>
<clipPath id="clip0_174_21411">
<rect width="10" height="10" fill="white"/>
</clipPath>
</defs>
</svg>
