<svg width="11" height="13" viewBox="0 0 11 13" fill="none" xmlns="http://www.w3.org/2000/svg">
<path d="M9.35 4.563V3.79166C9.35 1.69759 7.62631 0 5.5 0C3.37369 0 1.65 1.69759 1.65 3.79166V4.563C0.649018 4.99324 0.00144375 5.96606 0 7.04166V10.2917C0.00180469 11.7867 1.23196 12.9982 2.74999 13H8.24999C9.76801 12.9982 10.9982 11.7867 11 10.2917V7.04166C10.9986 5.96606 10.351 4.99324 9.35 4.563ZM6.04999 9.20834C6.04999 9.50749 5.80375 9.75 5.5 9.75C5.19624 9.75 4.95001 9.50749 4.95001 9.20834V8.125C4.95001 7.82585 5.19624 7.58334 5.5 7.58334C5.80375 7.58334 6.04999 7.82585 6.04999 8.125V9.20834ZM8.25001 4.33334H2.74999V3.79168C2.74999 2.29592 3.9812 1.08334 5.5 1.08334C7.0188 1.08334 8.25001 2.2959 8.25001 3.79168V4.33334Z" fill="#E75535"/>
</svg>
