<svg width="10" height="10" viewBox="0 0 10 10" fill="none" xmlns="http://www.w3.org/2000/svg">
<g clip-path="url(#clip0_174_21339)">
<path d="M9.21875 7.72344V6.48438C9.21875 5.8382 8.69305 5.3125 8.04688 5.3125H5.39062V3.86697C6.28104 3.68551 6.95312 2.89633 6.95312 1.95312C6.95312 0.876172 6.07695 0 5 0C3.92305 0 3.04688 0.876172 3.04688 1.95312C3.04688 2.89633 3.71896 3.68551 4.60938 3.86697V5.3125H1.95312C1.30695 5.3125 0.78125 5.8382 0.78125 6.48438V7.72344C0.326602 7.88471 0 8.31889 0 8.82812C0 9.4743 0.525703 10 1.17188 10C1.81805 10 2.34375 9.4743 2.34375 8.82812C2.34375 8.31889 2.01715 7.88471 1.5625 7.72344V6.48438C1.5625 6.26898 1.73773 6.09375 1.95312 6.09375H4.60938V7.72344C4.15473 7.88469 3.82812 8.31889 3.82812 8.82812C3.82812 9.4743 4.35383 10 5 10C5.64615 10 6.17188 9.4743 6.17188 8.82812C6.17188 8.31889 5.84527 7.88471 5.39062 7.72344V6.09375H8.04688C8.26227 6.09375 8.4375 6.26898 8.4375 6.48438V7.72344C7.98285 7.88469 7.65625 8.31889 7.65625 8.82812C7.65625 9.4743 8.18195 10 8.82812 10C9.4743 10 10 9.4743 10 8.82812C10 8.31889 9.6734 7.88471 9.21875 7.72344ZM1.17188 9.21875C0.956484 9.21875 0.78125 9.04352 0.78125 8.82812C0.78125 8.61273 0.956484 8.4375 1.17188 8.4375C1.38727 8.4375 1.5625 8.61273 1.5625 8.82812C1.5625 9.04352 1.38727 9.21875 1.17188 9.21875ZM5 9.21875C4.78461 9.21875 4.60938 9.04352 4.60938 8.82812C4.60938 8.61273 4.78461 8.4375 5 8.4375C5.21539 8.4375 5.39062 8.61273 5.39062 8.82812C5.39062 9.04352 5.21539 9.21875 5 9.21875ZM5 3.125C4.35383 3.125 3.82812 2.5993 3.82812 1.95312C3.82812 1.30695 4.35383 0.78125 5 0.78125C5.64615 0.78125 6.17188 1.30695 6.17188 1.95312C6.17188 2.5993 5.64617 3.125 5 3.125ZM8.82812 9.21875C8.61273 9.21875 8.4375 9.04352 8.4375 8.82812C8.4375 8.61273 8.61273 8.4375 8.82812 8.4375C9.04352 8.4375 9.21875 8.61273 9.21875 8.82812C9.21875 9.04352 9.04352 9.21875 8.82812 9.21875Z" fill="white"/>
</g>
<defs>
<clipPath id="clip0_174_21339">
<rect width="10" height="10" fill="white"/>
</clipPath>
</defs>
</svg>
