<svg width="10" height="10" viewBox="0 0 10 10" fill="none" xmlns="http://www.w3.org/2000/svg">
<path d="M5.9375 3.75V3.125H5C4.82742 3.125 4.6875 2.98508 4.6875 2.8125V1.5625C4.6875 1.38992 4.82742 1.25 5 1.25H5.3125V0.9375C5.3125 0.764923 5.45227 0.625 5.625 0.625C5.79773 0.625 5.9375 0.764923 5.9375 0.9375V1.25H6.25C6.42273 1.25 6.5625 1.38992 6.5625 1.5625C6.5625 1.73508 6.42273 1.875 6.25 1.875H5.3125V2.5H6.25C6.42273 2.5 6.5625 2.63992 6.5625 2.8125V4.0625C6.5625 4.23508 6.42273 4.375 6.25 4.375H5.9375V4.6875C5.9375 4.86008 5.79773 5 5.625 5C5.45227 5 5.3125 4.86008 5.3125 4.6875V4.375H5C4.82742 4.375 4.6875 4.23508 4.6875 4.0625C4.6875 3.88992 4.82742 3.75 5 3.75H5.9375ZM9.6875 9.0625C9.6875 9.23523 9.54773 9.375 9.375 9.375H8.75H7.5H6.25H5H3.75H2.5H1.25C1.07742 9.375 0.9375 9.23523 0.9375 9.0625V1.875C0.9375 1.70242 1.07742 1.5625 1.25 1.5625C1.42258 1.5625 1.5625 1.70242 1.5625 1.875V8.75H2.1875V4.0625C2.1875 3.88992 2.32742 3.75 2.5 3.75H3.75C3.92258 3.75 4.0625 3.88992 4.0625 4.0625V8.75H4.6875V6.5625C4.6875 6.38977 4.82742 6.25 5 6.25H6.25C6.42273 6.25 6.5625 6.38977 6.5625 6.5625V8.75H7.1875V5.3125C7.1875 5.13992 7.32727 5 7.5 5H8.75C8.92273 5 9.0625 5.13992 9.0625 5.3125V8.75H9.375C9.54773 8.75 9.6875 8.88977 9.6875 9.0625ZM3.4375 8.75V4.375H2.8125V8.75H3.4375ZM5.9375 8.75V6.875H5.3125V8.75H5.9375ZM8.4375 8.75V5.625H7.8125V8.75H8.4375Z" fill="white"/>
</svg>
