<svg width="15" height="15" viewBox="0 0 15 15" fill="none" xmlns="http://www.w3.org/2000/svg">
<path d="M9.95831 10.2498C12.7427 10.2498 15 7.99255 15 5.20817C15 2.4238 12.7427 0.166504 9.95831 0.166504C7.17394 0.166504 4.91665 2.4238 4.91665 5.20817C4.91665 5.74385 4.99972 6.26234 5.15441 6.74645L0.533834 11.367C0.404928 11.4959 0.333313 11.6707 0.333313 11.854V14.1457C0.333313 14.5267 0.639823 14.8332 1.02081 14.8332H3.31248C3.69347 14.8332 3.99998 14.5267 3.99998 14.1457V12.9998H5.14581C5.5268 12.9998 5.83331 12.6933 5.83331 12.3123V11.1665H6.97915C7.16248 11.1665 7.33722 11.0949 7.46613 10.966L8.42003 10.0121C8.90415 10.1668 9.42264 10.2498 9.95831 10.2498ZM11.1041 5.20817C10.4711 5.20817 9.95831 4.69541 9.95831 4.06234C9.95831 3.42926 10.4711 2.9165 11.1041 2.9165C11.7372 2.9165 12.25 3.42926 12.25 4.06234C12.25 4.69541 11.7372 5.20817 11.1041 5.20817Z" fill="#F9B619"/>
</svg>
