<svg width="10" height="8" viewBox="0 0 10 8" fill="none" xmlns="http://www.w3.org/2000/svg">
<path d="M10 6.50015L10 4.83349L9.58333 4.83349C9.36232 4.83349 9.15036 4.74569 8.99408 4.58941C8.8378 4.43313 8.75 4.22117 8.75 4.00015C8.75 3.77914 8.8378 3.56718 8.99408 3.4109C9.15036 3.25462 9.36232 3.16682 9.58333 3.16682L10 3.16682L10 1.50015C10 1.16863 9.8683 0.85069 9.63388 0.616269C9.39946 0.381849 9.08152 0.250153 8.75 0.250153L0 0.250152L-1.27492e-07 3.16682L0.416667 3.16682C0.637681 3.16682 0.849642 3.25462 1.00592 3.4109C1.1622 3.56718 1.25 3.77914 1.25 4.00015C1.25 4.22117 1.1622 4.43313 1.00592 4.58941C0.849642 4.74569 0.637681 4.83349 0.416667 4.83349L-2.00344e-07 4.83349L-3.27835e-07 7.75015L8.75 7.75015C9.08152 7.75015 9.39946 7.61846 9.63388 7.38404C9.8683 7.14962 10 6.83167 10 6.50015V6.50015ZM0.833334 5.61432C1.19147 5.52224 1.50881 5.31367 1.73541 5.02144C1.962 4.72922 2.08498 4.36994 2.08498 4.00015C2.08498 3.63037 1.962 3.27108 1.73541 2.97886C1.50881 2.68664 1.19147 2.47807 0.833334 2.38599L0.833334 1.08349L2.91667 1.08349L2.91667 2.33349L3.75 2.33349L3.75 1.08349L8.75 1.08349C8.86051 1.08349 8.96649 1.12738 9.04463 1.20552C9.12277 1.28366 9.16667 1.38965 9.16667 1.50015L9.16667 2.38599C8.80853 2.47807 8.49119 2.68664 8.26459 2.97886C8.038 3.27108 7.91502 3.63037 7.91502 4.00015C7.91502 4.36994 8.038 4.72922 8.26459 5.02144C8.49119 5.31367 8.80853 5.52224 9.16667 5.61432L9.16667 6.50015C9.16667 6.61066 9.12277 6.71664 9.04463 6.79478C8.96649 6.87292 8.86051 6.91682 8.75 6.91682L3.75 6.91682L3.75 5.66682L2.91667 5.66682L2.91667 6.91682L0.833334 6.91682L0.833334 5.61432Z" fill="white"/>
</svg>
