<svg xmlns="http://www.w3.org/2000/svg" width="22.69" height="22.69" viewBox="0 0 22.69 22.69">
  <path id="Path_3791" data-name="Path 3791" d="M14.292,1.025a.94.94,0,0,1,1.329,0L17.7,3.111l0,0a.939.939,0,0,1,.052,1.275h0A1.449,1.449,0,0,0,19.8,6.431h0a.939.939,0,0,1,1.275.052l0,0,2.084,2.084a.94.94,0,0,1,0,1.329L19.84,13.221h0a1.873,1.873,0,0,1-.732.452.362.362,0,0,0-.229.23h0a1.876,1.876,0,0,1-.452.733L9.9,23.164a.94.94,0,0,1-1.329,0L6.485,21.08l0,0A.939.939,0,0,1,6.432,19.8h0a1.451,1.451,0,0,0-2.046-2.046h0a.939.939,0,0,1-1.275-.051l0,0L1.025,15.62a.94.94,0,0,1,0-1.329L9.553,5.765a1.876,1.876,0,0,1,.731-.452m8.258,6.956.086-.031h0a.36.36,0,0,0,.141-.087h0l2.92-2.92L20.35,7.89a2.964,2.964,0,0,1-3.587-.46h0A2.964,2.964,0,0,1,16.3,3.842L14.956,2.5l-2.92,2.92a.361.361,0,0,0-.087.141q-.014.043-.031.085l.451.451a.756.756,0,0,1-1.07,1.07l-.45-.45-.086.031h0a.364.364,0,0,0-.142.088h0L2.5,14.956,3.84,16.3a2.963,2.963,0,0,1,4.053,4.053L9.234,21.69l8.122-8.122a.364.364,0,0,0,.087-.141q.014-.043.031-.086l-.451-.451a.756.756,0,0,1,1.07-1.07ZM10.284,5.313a.362.362,0,0,0,.229-.23h0a1.871,1.871,0,0,1,.453-.733h0l3.325-3.325M12.86,7.658a.756.756,0,0,1,1.07,0l.52.52a.756.756,0,1,1-1.069,1.07l-.52-.52A.756.756,0,0,1,12.86,7.658Zm2.082,2.08a.756.756,0,0,1,1.07,0l.52.52a.756.756,0,1,1-1.07,1.069l-.52-.52A.756.756,0,0,1,14.942,9.739Z" transform="translate(-0.75 -0.75)" fill="#FFFFFF" fill-rule="evenodd"/>
</svg>
