<svg width="10" height="10" viewBox="0 0 10 10" fill="none" xmlns="http://www.w3.org/2000/svg">
<g clip-path="url(#clip0_174_21489)">
<path d="M1.81035 4.21885C1.93203 4.34072 2.13047 4.34072 2.25215 4.21885L2.65625 3.81475C2.77813 3.69307 2.77813 3.49463 2.65625 3.37295L2.25215 2.96885H7.8125C8.32949 2.96885 8.75 3.38936 8.75 3.90635C8.75 4.16475 8.96035 4.3751 9.21875 4.3751H9.53125C9.78965 4.3751 10 4.16475 10 3.90635C10 2.7001 9.01875 1.71885 7.8125 1.71885H2.25215L2.65625 1.31475C2.77813 1.19307 2.77813 0.994629 2.65625 0.872949L2.25215 0.468848C2.13047 0.346973 1.93203 0.346973 1.81035 0.468848L0.0457031 2.2333C-0.0152344 2.29443 -0.0152344 2.39326 0.0457031 2.45439L1.81035 4.21885Z" fill="white"/>
<path d="M8.18965 5.78125C8.06797 5.65938 7.86973 5.65938 7.74785 5.78125L7.34375 6.18535C7.22164 6.30746 7.22145 6.50484 7.34375 6.62715L7.74785 7.03125H2.1875C1.67051 7.03125 1.25 6.61074 1.25 6.09375C1.25 5.83535 1.03965 5.625 0.78125 5.625H0.46875C0.210352 5.625 0 5.83535 0 6.09375C0 7.3 0.98125 8.28125 2.1875 8.28125H7.74785L7.34375 8.68535C7.22164 8.80746 7.22145 9.00484 7.34375 9.12715L7.74785 9.53125C7.86975 9.65314 8.06777 9.65312 8.18965 9.53125L9.9543 7.7668C10.0152 7.70566 10.0152 7.60684 9.9543 7.5457L8.18965 5.78125Z" fill="white"/>
</g>
<defs>
<clipPath id="clip0_174_21489">
<rect width="10" height="10" fill="white"/>
</clipPath>
</defs>
</svg>
