<svg width="12" height="13" viewBox="0 0 12 13" fill="none" xmlns="http://www.w3.org/2000/svg">
<path fill-rule="evenodd" clip-rule="evenodd" d="M0.837209 5.87401C0.837209 8.57121 3.02373 10.7577 5.72093 10.7577C8.41813 10.7577 10.6047 8.57121 10.6047 5.87401C10.6047 3.1768 8.41813 0.990286 5.72093 0.990286C3.02373 0.990286 0.837209 3.1768 0.837209 5.87401ZM5.72093 11.5949C2.56135 11.5949 0 9.03359 0 5.87401C0 2.71442 2.56135 0.153076 5.72093 0.153076C8.88051 0.153076 11.4419 2.71442 11.4419 5.87401C11.4419 7.30313 10.9178 8.60986 10.0515 9.61254L11.8774 11.4385C12.0409 11.6019 12.0409 11.867 11.8774 12.0305C11.7139 12.1939 11.4489 12.1939 11.2854 12.0305L9.45946 10.2045C8.45679 11.0709 7.15005 11.5949 5.72093 11.5949Z" fill="#333333"/>
</svg>
