<svg width="26" height="28" viewBox="0 0 26 28" fill="none" xmlns="http://www.w3.org/2000/svg">
<path d="M0.874868 21C1.83988 22.6749 3.97997 23.2503 5.65483 22.2853C5.65598 22.2846 5.65707 22.284 5.65822 22.2833L6.17737 21.9834C7.15737 22.8219 8.28382 23.4721 9.50002 23.9014V24.5C9.50002 26.433 11.067 28 13 28C14.933 28 16.5 26.433 16.5 24.5V23.9015C17.7164 23.4715 18.8429 22.8205 19.8227 21.9811L20.3442 22.2821C22.0194 23.2486 24.161 22.6741 25.1275 20.9988C26.094 19.3236 25.5195 17.1819 23.8442 16.2154L23.3262 15.9168C23.5594 14.648 23.5594 13.3473 23.3262 12.0784L23.8442 11.7798C25.5194 10.8133 26.094 8.67174 25.1275 6.99645C24.161 5.3212 22.0195 4.7466 20.3442 5.71309L19.825 6.01295C18.844 5.17552 17.7168 4.52648 16.5 4.0985V3.5C16.5 1.56702 14.933 0 13 0C11.067 0 9.50002 1.56702 9.50002 3.5V4.0985C8.28366 4.52851 7.15715 5.17951 6.17737 6.01885L5.65587 5.7167C3.98057 4.75016 1.83901 5.32476 0.872517 7C-0.0939756 8.67524 0.480571 10.8169 2.15587 11.7834L2.67387 12.082C2.44068 13.3508 2.44068 14.6515 2.67387 15.9204L2.15587 16.219C0.48522 17.1881 -0.0874678 19.3255 0.874868 21ZM13 9.33335C15.5773 9.33335 17.6667 11.4227 17.6667 14C17.6667 16.5773 15.5773 18.6666 13 18.6666C10.4227 18.6666 8.33337 16.5773 8.33337 14C8.33337 11.4227 10.4227 9.33335 13 9.33335Z" fill="#9A9A9A"/>
</svg>
