<svg width="13" height="12" viewBox="0 0 13 12" fill="none" xmlns="http://www.w3.org/2000/svg">
<g clip-path="url(#clip0_586_3550)">
<path d="M10.4222 0H1.59693C1.17573 0 0.771779 0.167322 0.473945 0.465156C0.176111 0.76299 0.00878906 1.16694 0.00878906 1.58814L0.00878906 10.4134C0.00878906 10.8346 0.176111 11.2386 0.473945 11.5364C0.771779 11.8343 1.17573 12.0016 1.59693 12.0016H10.4222C10.8434 12.0016 11.2474 11.8343 11.5452 11.5364C11.8431 11.2386 12.0104 10.8346 12.0104 10.4134V1.58814C12.0104 1.16694 11.8431 0.76299 11.5452 0.465156C11.2474 0.167322 10.8434 0 10.4222 0V0ZM10.8336 10.2276C10.8336 10.386 10.7707 10.5379 10.6587 10.6499C10.5467 10.7619 10.3948 10.8248 10.2364 10.8248H1.78116C1.62278 10.8248 1.4709 10.7619 1.35891 10.6499C1.24693 10.5379 1.18401 10.386 1.18401 10.2276V1.77237C1.18401 1.61399 1.24693 1.46211 1.35891 1.35012C1.4709 1.23814 1.62278 1.17523 1.78116 1.17523H10.2364C10.3948 1.17523 10.5467 1.23814 10.6587 1.35012C10.7707 1.46211 10.8336 1.61399 10.8336 1.77237V10.2276Z" fill="#888888"/>
<path d="M7.94306 4.06567H6.75195V5.25678H7.94306V4.06567Z" fill="#888888"/>
<path d="M5.71967 4.06567H4.52856V5.25678H5.71967V4.06567Z" fill="#888888"/>
<path d="M3.49628 4.06567H2.30518V5.25678H3.49628V4.06567Z" fill="#888888"/>
<path d="M6.75049 6.28912V7.48022H7.94159V6.28912H6.75049Z" fill="#888888"/>
<path d="M6.75049 8.51251V9.70361H7.94159V8.51251H6.75049Z" fill="#888888"/>
</g>
<defs>
<clipPath id="clip0_586_3550">
<rect width="12" height="12" fill="#888888" transform="translate(0.00878906)"/>
</clipPath>
</defs>
</svg>
