<svg width="24" height="24" viewBox="0 0 24 24" fill="none" xmlns="http://www.w3.org/2000/svg">
<circle cx="12" cy="12" r="11.625" stroke="#333333" stroke-opacity="0.75" stroke-width="0.75"/>
<path d="M7.00012 8.95312V8.35156C7.00012 7.91927 7.09387 7.52604 7.28137 7.17188C7.46887 6.81771 7.7371 6.53385 8.08606 6.32031C8.43502 6.10677 8.84908 6 9.32825 6C9.81783 6 10.2345 6.10677 10.5782 6.32031C10.9272 6.53385 11.1954 6.81771 11.3829 7.17188C11.5704 7.52604 11.6642 7.91927 11.6642 8.35156V8.95312C11.6642 9.375 11.5704 9.76302 11.3829 10.1172C11.2006 10.4714 10.935 10.7552 10.5861 10.9688C10.2423 11.1823 9.82825 11.2891 9.34387 11.2891C8.8595 11.2891 8.44023 11.1823 8.08606 10.9688C7.7371 10.7552 7.46887 10.4714 7.28137 10.1172C7.09387 9.76302 7.00012 9.375 7.00012 8.95312ZM8.08606 8.35156V8.95312C8.08606 9.19271 8.13033 9.41927 8.21887 9.63281C8.31262 9.84635 8.45325 10.0208 8.64075 10.1562C8.82825 10.2865 9.06262 10.3516 9.34387 10.3516C9.62512 10.3516 9.85689 10.2865 10.0392 10.1562C10.2215 10.0208 10.3569 9.84635 10.4454 9.63281C10.534 9.41927 10.5782 9.19271 10.5782 8.95312V8.35156C10.5782 8.10677 10.5314 7.8776 10.4376 7.66406C10.3491 7.44531 10.2111 7.27083 10.0236 7.14062C9.84127 7.00521 9.6095 6.9375 9.32825 6.9375C9.05221 6.9375 8.82043 7.00521 8.63293 7.14062C8.45064 7.27083 8.31262 7.44531 8.21887 7.66406C8.13033 7.8776 8.08606 8.10677 8.08606 8.35156ZM12.5392 15.3594V14.75C12.5392 14.3229 12.6329 13.9323 12.8204 13.5781C13.0079 13.224 13.2762 12.9401 13.6251 12.7266C13.9741 12.513 14.3881 12.4062 14.8673 12.4062C15.3569 12.4062 15.7736 12.513 16.1173 12.7266C16.4663 12.9401 16.7345 13.224 16.922 13.5781C17.1095 13.9323 17.2032 14.3229 17.2032 14.75V15.3594C17.2032 15.7865 17.1095 16.1771 16.922 16.5312C16.7397 16.8854 16.4741 17.1693 16.1251 17.3828C15.7814 17.5964 15.3673 17.7031 14.8829 17.7031C14.3986 17.7031 13.9819 17.5964 13.6329 17.3828C13.284 17.1693 13.0131 16.8854 12.8204 16.5312C12.6329 16.1771 12.5392 15.7865 12.5392 15.3594ZM13.6251 14.75V15.3594C13.6251 15.599 13.6694 15.8281 13.7579 16.0469C13.8517 16.2604 13.9923 16.4349 14.1798 16.5703C14.3673 16.7005 14.6017 16.7656 14.8829 16.7656C15.1642 16.7656 15.396 16.7005 15.5782 16.5703C15.7657 16.4349 15.9038 16.2604 15.9923 16.0469C16.0809 15.8333 16.1251 15.6042 16.1251 15.3594V14.75C16.1251 14.5052 16.0782 14.276 15.9845 14.0625C15.896 13.849 15.7579 13.6771 15.5704 13.5469C15.3881 13.4115 15.1538 13.3438 14.8673 13.3438C14.5913 13.3438 14.3595 13.4115 14.172 13.5469C13.9897 13.6771 13.8517 13.849 13.7579 14.0625C13.6694 14.276 13.6251 14.5052 13.6251 14.75ZM15.2267 7.78125L9.672 16.6719L8.8595 16.1562L14.4142 7.26562L15.2267 7.78125Z" fill="black"/>
</svg>
