<svg width="16" height="12" viewBox="0 0 16 12" fill="none" xmlns="http://www.w3.org/2000/svg">
<g clip-path="url(#clip0_586_3513)">
<path d="M3.81325 4.16665C4.25208 4.2426 4.70369 4.17701 5.10278 3.97935C5.50187 3.78169 5.82774 3.46221 6.03327 3.06712C6.2388 2.67203 6.31333 2.2218 6.24609 1.78156C6.17885 1.34131 5.97332 0.933858 5.65923 0.61813C5.34513 0.302403 4.93875 0.0947654 4.49886 0.025245C4.05897 -0.0442754 3.60836 0.0279254 3.21221 0.231406C2.81606 0.434886 2.4949 0.759099 2.29517 1.15716C2.09545 1.55521 2.02751 2.00648 2.10119 2.4457C2.17344 2.87443 2.37691 3.2702 2.68355 3.57843C2.99019 3.88666 3.3849 4.09218 3.81325 4.16665V4.16665Z" fill="#888888"/>
<path d="M12.16 6.00317H10.6325C9.72351 6.00552 8.85234 6.36735 8.20916 7.0097C7.56598 7.65205 7.20302 8.52275 7.1995 9.43174V11.3795C7.19862 11.4615 7.21401 11.5429 7.24479 11.6189C7.27557 11.695 7.32113 11.7641 7.37882 11.8225C7.43651 11.8808 7.50519 11.9271 7.5809 11.9587C7.6566 11.9902 7.73781 12.0065 7.81984 12.0065H14.9705C15.135 12.0065 15.2928 11.9412 15.4091 11.8248C15.5255 11.7085 15.5908 11.5507 15.5908 11.3862V9.43174C15.5879 8.52295 15.2254 7.65225 14.5826 7.00984C13.9398 6.36743 13.0688 6.00552 12.16 6.00317V6.00317Z" fill="#888888"/>
<path d="M11.0129 5.36729C11.452 5.44304 11.9038 5.37707 12.303 5.17894C12.7021 4.98081 13.0278 4.66079 13.233 4.26523C13.4381 3.86966 13.5121 3.41907 13.4441 2.97868C13.3761 2.5383 13.1697 2.13097 12.8548 1.81568C12.54 1.50039 12.1329 1.29349 11.6926 1.22494C11.2523 1.15639 10.8016 1.22974 10.4058 1.43438C10.01 1.63901 9.68952 1.96431 9.49087 2.36318C9.29222 2.76205 9.22566 3.21379 9.30084 3.65301C9.37465 4.0804 9.57878 4.47452 9.88526 4.78141C10.1917 5.08829 10.5856 5.29293 11.0129 5.36729V5.36729Z" fill="#888888"/>
<path d="M6.02335 10.7569V8.80919C6.02398 8.24916 6.1617 7.6978 6.42448 7.20325C6.68725 6.70871 7.0671 6.286 7.53085 5.97206C7.21027 5.60476 6.81491 5.3102 6.37124 5.10811C5.92757 4.90603 5.44584 4.80108 4.95831 4.80029H3.4308C2.52256 4.80322 1.6523 5.165 1.00966 5.80681C0.367022 6.44862 0.00410633 7.31841 4.01384e-06 8.22664V10.1744C-0.000289853 10.2559 0.0155552 10.3367 0.0466264 10.4121C0.0776975 10.4875 0.123381 10.556 0.181043 10.6137C0.238706 10.6714 0.307209 10.717 0.382606 10.7481C0.458002 10.7792 0.538801 10.795 0.620349 10.7947H6.0278C6.02534 10.7823 6.02386 10.7696 6.02335 10.7569V10.7569Z" fill="#888888"/>
</g>
<defs>
<clipPath id="clip0_586_3513">
<rect width="15.5909" height="12" fill="#888888"/>
</clipPath>
</defs>
</svg>
