<svg width="17" height="10" viewBox="0 0 17 10" fill="none" xmlns="http://www.w3.org/2000/svg">
<path d="M16.3536 5.176C16.5488 4.98074 16.5488 4.66416 16.3536 4.4689L13.1716 1.28691C12.9763 1.09165 12.6597 1.09165 12.4645 1.28691C12.2692 1.48218 12.2692 1.79876 12.4645 1.99402L15.2929 4.82245L12.4645 7.65088C12.2692 7.84614 12.2692 8.16272 12.4645 8.35798C12.6597 8.55324 12.9763 8.55324 13.1716 8.35798L16.3536 5.176ZM0 5.32245H16V4.32245H0V5.32245Z" fill="#999999"/>
<path d="M4.65348 7.97758L4.45348 8.32399L4.79989 8.52399L5.66592 9.02399L6.01233 9.22399L6.21233 8.87758L10.1701 2.02245L10.3701 1.67604L10.0237 1.47604L9.15771 0.976039L8.81129 0.776038L8.61129 1.12245L4.65348 7.97758Z" fill="#999999" stroke="white" stroke-width="0.8"/>
</svg>
