<svg width="24" height="24" viewBox="0 0 24 24" fill="none" xmlns="http://www.w3.org/2000/svg">
<rect x="0.25" y="0.25" width="23.5" height="23.5" rx="11.75" fill="#F9B619"/>
<g clip-path="url(#clip0_495_19145)">
<path d="M11.502 6.14905C9.50809 6.37549 7.78777 7.79005 7.10545 9.76045C6.99073 10.0927 6.87013 10.6486 6.83785 10.9926C6.82609 11.1102 6.79369 11.2573 6.76429 11.3161C6.71137 11.4161 6.70837 11.5249 6.70837 13.2953C6.70837 14.554 6.72013 15.198 6.74077 15.2538C6.81721 15.4537 7.03489 15.5832 7.29949 15.5861H7.46125L7.49653 15.8508C7.65241 17.0124 8.48761 17.6212 10.0315 17.6947C10.4197 17.7124 10.4697 17.7211 10.6138 17.7977L10.7725 17.88H11.6019C12.1165 17.88 12.4723 17.8682 12.5459 17.8476C12.7077 17.8034 12.8988 17.6064 12.9429 17.4389C12.9634 17.3624 12.9723 17.1977 12.9664 17.0507C12.9546 16.8212 12.9429 16.7772 12.8664 16.6684C12.8194 16.5978 12.7253 16.5125 12.6635 16.4772C12.5488 16.4125 12.5224 16.4095 11.6695 16.4095C10.6843 16.4095 10.6902 16.4095 10.5521 16.6213C10.5138 16.683 10.4433 16.8478 10.3991 16.983L10.3197 17.233H10.0667C9.58729 17.233 8.98741 17.0947 8.67865 16.9153C8.50225 16.8154 8.24929 16.5713 8.16109 16.4213C8.05813 16.2478 7.97581 15.9889 7.95517 15.7742L7.93465 15.586H8.47573C9.09325 15.586 9.19621 15.5596 9.34321 15.3625L9.42853 15.2537L9.43741 13.3834C9.44329 12.3541 9.43741 11.4689 9.42853 11.416C9.40789 11.2984 9.25501 11.119 9.12853 11.0689C9.06385 11.0424 8.90497 11.0278 8.64913 11.0278C8.39329 11.0278 8.26681 11.016 8.26681 10.9954C8.26681 10.9777 8.29333 10.8336 8.32561 10.6718C8.60209 9.31321 9.64021 8.13684 10.9282 7.72513C11.3693 7.58401 11.4605 7.57224 12.0457 7.57512C12.5545 7.57512 12.631 7.58389 12.8897 7.65157C13.5337 7.82508 14.0866 8.14272 14.5777 8.62201C15.0454 9.07489 15.3807 9.59545 15.5865 10.1807C15.6777 10.4424 15.7659 10.8217 15.7659 10.9541V11.0276H15.3689C15.0954 11.0276 14.9395 11.0394 14.8749 11.0688C14.7601 11.1158 14.6337 11.2482 14.5925 11.3599C14.5483 11.4746 14.5483 15.1388 14.5925 15.2536C14.6367 15.3712 14.7337 15.4682 14.869 15.53C14.9748 15.5801 15.0748 15.586 15.9365 15.586C16.8275 15.586 16.8923 15.5831 17.001 15.5272C17.0628 15.4948 17.151 15.4213 17.1981 15.3595L17.2804 15.2537L17.2891 13.3686C17.295 11.7805 17.2891 11.4571 17.2539 11.3071C17.2303 11.21 17.2009 11.0336 17.1921 10.913C17.1538 10.4072 16.9626 9.72793 16.7098 9.18973C15.7486 7.15489 13.6165 5.91085 11.502 6.14905Z" fill="white"/>
</g>
<rect x="0.25" y="0.25" width="23.5" height="23.5" rx="11.75" stroke="#F9B619" stroke-width="0.5"/>
<defs>
<clipPath id="clip0_495_19145">
<rect width="12" height="12" fill="white" transform="translate(6 6)"/>
</clipPath>
</defs>
</svg>
