<svg width="12" height="11" viewBox="0 0 12 11" fill="none" xmlns="http://www.w3.org/2000/svg">
<path d="M4.42666 1.32986C4.91869 0.466218 6.19242 0.466217 6.68445 1.32986L10.9467 8.81125C11.4249 9.65061 10.8025 10.6821 9.81784 10.6821H1.29327C0.308588 10.6821 -0.313831 9.65062 0.164372 8.81125L4.42666 1.32986Z" fill="#F9B619"/>
<path d="M6.11111 8.45991C6.11111 8.76674 5.86238 9.01547 5.55556 9.01547C5.24873 9.01547 5 8.76674 5 8.45991C5 8.15309 5.24873 7.90436 5.55556 7.90436C5.86238 7.90436 6.11111 8.15309 6.11111 8.45991Z" fill="#333333"/>
<path fill-rule="evenodd" clip-rule="evenodd" d="M5.55583 3.59879C5.78595 3.59879 5.97249 3.78533 5.97249 4.01545V6.79323C5.97249 7.02335 5.78595 7.2099 5.55583 7.2099C5.32571 7.2099 5.13916 7.02335 5.13916 6.79323V4.01545C5.13916 3.78533 5.32571 3.59879 5.55583 3.59879Z" fill="#333333"/>
</svg>
