<svg xmlns="http://www.w3.org/2000/svg" width="17.207" height="16.991" viewBox="0 0 17.207 16.991">
  <g id="Group_4270" data-name="Group 4270" transform="translate(276.933 -512.613)">
    <rect id="Rectangle_1341" data-name="Rectangle 1341" width="6.501" height="6.501" transform="translate(-276.333 513.816)" fill="none" stroke="#000000" stroke-linejoin="round" stroke-width="1.2"/>
    <rect id="Rectangle_1342" data-name="Rectangle 1342" width="6.501" height="6.501" transform="translate(-276.333 522.502)" fill="none" stroke="#000000" stroke-linejoin="round" stroke-width="1.2"/>
    <rect id="Rectangle_1343" data-name="Rectangle 1343" width="6.501" height="6.501" transform="translate(-267.647 522.502)" fill="none" stroke="#000000" stroke-linejoin="round" stroke-width="1.2"/>
    <path id="Path_2105" data-name="Path 2105" d="M-262.748,513.3l1.039,2.107a.155.155,0,0,0,.117.084l2.325.338a.154.154,0,0,1,.085.263l-1.682,1.64a.154.154,0,0,0-.045.137l.4,2.316a.154.154,0,0,1-.223.162l-2.08-1.094a.155.155,0,0,0-.144,0l-2.08,1.094a.154.154,0,0,1-.223-.162l.4-2.316a.155.155,0,0,0-.044-.137l-1.683-1.64a.154.154,0,0,1,.085-.263l2.325-.338a.153.153,0,0,0,.117-.084l1.039-2.107A.154.154,0,0,1-262.748,513.3Z" transform="translate(-1.199)" fill="none" stroke="#000000" stroke-linejoin="round" stroke-width="1.2"/>
  </g>
</svg>
