<svg xmlns="http://www.w3.org/2000/svg" width="16.364" height="18" viewBox="0 0 16.364 18">
  <g id="Group_7240" data-name="Group 7240" transform="translate(2186.152 -856.088)">
    <path id="Path_2949" data-name="Path 2949" d="M166.637,71.888h-.72a.009.009,0,0,0-.007,0l-3.541,5.382a.009.009,0,0,1-.014,0l-1.012-1.5-.684-1.013a.009.009,0,0,0-.007,0l-.763-.007a.009.009,0,0,0-.007.013l.812,1.206h0l1.666,2.489a.009.009,0,0,0,.014,0l4.271-6.562A.009.009,0,0,0,166.637,71.888Z" transform="translate(-2341.233 792.2)" fill="#000000" stroke="#000000" stroke-width="0.5"/>
    <path id="Path_2954" data-name="Path 2954" d="M16.727,2.636h-.818V1H14.273V2.636H6.091V1H4.455V2.636H3.636A1.641,1.641,0,0,0,2,4.273V17.364A1.641,1.641,0,0,0,3.636,19H16.727a1.641,1.641,0,0,0,1.636-1.636V4.273A1.641,1.641,0,0,0,16.727,2.636Zm0,14.727H3.636v-9H16.727Zm0-10.636H3.636V4.273H16.727Z" transform="translate(-2188.152 855.088)" fill="#000000"/>
  </g>
</svg>
