<svg xmlns="http://www.w3.org/2000/svg" width="16.104" height="17.898" viewBox="0 0 16.104 17.898">
  <g id="Group_7350" data-name="Group 7350" transform="translate(632.027 -82.771)">
    <path id="Path_2879" data-name="Path 2879" d="M-627.291,89.174a2.926,2.926,0,0,1-2.926-2.926,2.927,2.927,0,0,1,2.926-2.927,2.927,2.927,0,0,1,2.926,2.927" fill="none" stroke="#000" stroke-linecap="round" stroke-linejoin="round" stroke-width="1.1"/>
    <path id="Path_2880" data-name="Path 2880" d="M-628.153,87.241l.335-.2a1.019,1.019,0,0,1,1.052,0l3.122,1.9a1,1,0,0,1,.484.856v9.319a1.008,1.008,0,0,1-1.012,1h-6.293a1.008,1.008,0,0,1-1.012-1V89.8a1,1,0,0,1,.488-.86l1.38-.827" fill="none" stroke="#000" stroke-linecap="round" stroke-linejoin="round" stroke-width="1.1"/>
    <path id="Path_2881" data-name="Path 2881" d="M-624.971,86.609l3.477.384a1.009,1.009,0,0,1,.787.562l4.121,8.312A.977.977,0,0,1-617,97.186l-4.859,2.409" fill="none" stroke="#000" stroke-linecap="round" stroke-linejoin="round" stroke-width="1.1"/>
    <g id="Group_7349" data-name="Group 7349">
      <path id="Path_2882" data-name="Path 2882" d="M-627.577,96.617a2.249,2.249,0,0,1-1.228-.392,1.749,1.749,0,0,1-.321-.29,1.528,1.528,0,0,1-.1-.116.9.9,0,0,0-.058-.094.082.082,0,0,1,.022-.109l.183-.16c.051-.043.087-.043.109-.007s.037.051.059.08a1.287,1.287,0,0,0,.1.109,1.806,1.806,0,0,0,.314.254,1.992,1.992,0,0,0,1.111.319,1.706,1.706,0,0,0,.95-.232.757.757,0,0,0,.35-.66.751.751,0,0,0-.482-.718,2.274,2.274,0,0,0-.5-.167l-.278-.058-.285-.051a3.093,3.093,0,0,1-1.066-.348,1.025,1.025,0,0,1-.483-.928,1.24,1.24,0,0,1,.41-.943,1.829,1.829,0,0,1,1.2-.428v-.725a.077.077,0,0,1,.088-.087h.226a.077.077,0,0,1,.088.087v.74a2.01,2.01,0,0,1,1.03.362,2.815,2.815,0,0,1,.263.247.987.987,0,0,1,.081.109.658.658,0,0,1,.051.087.088.088,0,0,1-.03.13l-.2.145c-.051.037-.088.029-.11-.014a.286.286,0,0,0-.051-.08,1.14,1.14,0,0,0-.08-.1,1.494,1.494,0,0,0-.249-.224,1.659,1.659,0,0,0-.972-.269,1.4,1.4,0,0,0-.942.29.825.825,0,0,0-.314.668.722.722,0,0,0,.482.688,2.775,2.775,0,0,0,.5.16l.277.065.293.051a3.357,3.357,0,0,1,1.059.355,1.047,1.047,0,0,1,.483.936,1.157,1.157,0,0,1-.395.892,1.828,1.828,0,0,1-1.169.42V97.4a.077.077,0,0,1-.088.087h-.226a.077.077,0,0,1-.088-.087Z" fill="#000" stroke="#000" stroke-linecap="round" stroke-linejoin="round" stroke-width="0.5"/>
    </g>
  </g>
</svg>
