<svg xmlns="http://www.w3.org/2000/svg" width="19.813" height="14.08" viewBox="0 0 19.813 14.08">
  <g id="Group_7238" data-name="Group 7238" transform="translate(-658.807 -38.919)">
    <path id="Path_1537" data-name="Path 1537" d="M661,45.467V40.427a.908.908,0,0,1,.908-.908h14.768a.908.908,0,0,1,.908.908v5.041" transform="translate(-0.578 0)" fill="none" stroke="#999999" stroke-linecap="round" stroke-linejoin="round" stroke-miterlimit="10" stroke-width="1.2"/>
    <path id="Rectangle_29" data-name="Rectangle 29" d="M1.741,0H16.872a1.741,1.741,0,0,1,1.741,1.741V3.757a0,0,0,0,1,0,0H0a0,0,0,0,1,0,0V1.741A1.741,1.741,0,0,1,1.741,0Z" transform="translate(659.407 45.464)" fill="none" stroke="#999999" stroke-linecap="round" stroke-linejoin="round" stroke-miterlimit="10" stroke-width="1.2"/>
    <path id="Path_1538" data-name="Path 1538" d="M677.686,54.75v2.141H660.63V54.75" transform="translate(-0.444 -5.53)" fill="none" stroke="#999999" stroke-linecap="round" stroke-linejoin="round" stroke-miterlimit="10" stroke-width="1.2"/>
    <line id="Line_1005" data-name="Line 1005" y2="1.038" transform="translate(661.36 51.361)" fill="none" stroke="#999999" stroke-linecap="round" stroke-miterlimit="10" stroke-width="1.2"/>
    <line id="Line_1006" data-name="Line 1006" y2="1.038" transform="translate(676.068 51.361)" fill="none" stroke="#999999" stroke-linecap="round" stroke-miterlimit="10" stroke-width="1.2"/>
    <path id="Path_1539" data-name="Path 1539" d="M664.671,46.36l-1.415-1.415,2.957-2.957,2.956,2.957-1.415,1.415" transform="translate(-1.397 -0.896)" fill="none" stroke="#999999" stroke-linecap="round" stroke-linejoin="round" stroke-width="1.2"/>
    <path id="Path_1540" data-name="Path 1540" d="M680,46.36l1.415-1.415-2.957-2.957L675.5,44.945l1.415,1.415" transform="translate(-5.841 -0.896)" fill="none" stroke="#999999" stroke-linecap="round" stroke-linejoin="round" stroke-width="1.2"/>
  </g>
</svg>
