<svg xmlns="http://www.w3.org/2000/svg" width="19.2" height="19.2" viewBox="0 0 19.2 19.2">
  <g id="Group_4279" data-name="Group 4279" transform="translate(-1127.9 -874.9)">
    <g id="Group_265" data-name="Group 265" transform="translate(1128.5 875.5)">
      <path id="Path_544" data-name="Path 544" d="M1139.55,877.31l-.643-1.81h-2.813l-.643,1.81a6.884,6.884,0,0,0-1.586.651l-1.728-.823-2,2,.823,1.728a6.884,6.884,0,0,0-.651,1.586l-1.81.643v2.813l1.81.643a6.887,6.887,0,0,0,.651,1.586l-.823,1.728,2,2,1.728-.823a6.89,6.89,0,0,0,1.586.651l.643,1.81h2.813l.643-1.81a6.89,6.89,0,0,0,1.586-.651l1.728.823,2-2-.823-1.728a6.892,6.892,0,0,0,.651-1.586l1.81-.643v-2.813l-1.81-.643a6.89,6.89,0,0,0-.651-1.586l.823-1.728-2-2-1.728.823A6.884,6.884,0,0,0,1139.55,877.31Z" transform="translate(-1128.5 -875.5)" fill="none" stroke="#000000" stroke-linecap="round" stroke-linejoin="round" stroke-width="1.2"/>
    </g>
    <circle id="Ellipse_159" data-name="Ellipse 159" cx="3.522" cy="3.522" r="3.522" transform="translate(1133.978 880.978)" fill="none" stroke="#000000" stroke-linecap="round" stroke-linejoin="round" stroke-width="1.2"/>
  </g>
</svg>
